<?xml version="1.0" standalone="no"?>
<!DOCTYPE svg PUBLIC "-//W3C//DTD SVG 20010904//EN"
 "http://www.w3.org/TR/2001/REC-SVG-20010904/DTD/svg10.dtd">
<svg version="1.0" xmlns="http://www.w3.org/2000/svg"
 width="512.000000pt" height="512.000000pt" viewBox="0 0 512.000000 512.000000"
 preserveAspectRatio="xMidYMid meet">
<metadata>
Created by potrace 1.11, written by Peter Selinger 2001-2013
</metadata>
<g transform="translate(0.000000,512.000000) scale(0.100000,-0.100000)"
fill="#000000" stroke="none">
<path d="M2285 5079 c-416 -44 -844 -207 -1189 -452 -558 -396 -916 -969
-1037 -1662 -27 -154 -37 -492 -20 -656 79 -753 481 -1428 1101 -1849 332
-225 757 -378 1168 -421 163 -17 504 -6 658 20 539 92 1004 331 1384 711 411
410 667 945 729 1522 14 125 14 411 0 536 -16 155 -66 383 -113 525 -132 393
-330 713 -620 1002 -410 408 -938 660 -1521 725 -106 12 -425 11 -540 -1z
m491 -1308 c415 -88 795 -436 896 -821 24 -91 29 -100 69 -100 45 0 173 -37
243 -70 142 -67 287 -214 355 -360 95 -203 95 -464 0 -652 -128 -254 -347
-409 -619 -439 -55 -6 -499 -9 -1157 -6 -1066 3 -1068 3 -1152 25 -177 47
-323 134 -452 269 -177 185 -256 401 -247 667 4 113 9 144 37 226 56 164 125
274 253 400 128 126 253 194 428 234 l100 22 52 80 c157 240 475 456 773 524
112 26 301 26 421 1z"/>
<path d="M2444 3489 c-149 -17 -297 -83 -428 -189 -70 -56 -139 -135 -134
-151 2 -6 34 -21 71 -34 164 -58 306 -166 425 -324 93 -123 156 -295 169 -458
l6 -83 -152 0 -151 0 0 48 c0 131 -67 270 -190 394 -68 69 -103 95 -161 123
-180 85 -364 85 -539 -1 -56 -28 -96 -58 -160 -123 -137 -137 -191 -261 -191
-442 -1 -180 46 -292 179 -431 87 -90 160 -137 272 -174 52 -18 119 -19 1130
-22 780 -2 1091 0 1135 8 90 18 160 55 236 128 201 189 205 468 10 663 -116
116 -211 148 -437 149 l-111 0 -7 98 c-13 191 -52 309 -150 457 -132 198 -362
337 -604 365 -97 11 -117 11 -218 -1z"/>
</g>
</svg>
